<svg width="200" height="200" viewBox="0 0 200 200" fill="none" xmlns="http://www.w3.org/2000/svg">
<g filter="url(#filter0_d_71_170)">
<rect x="31" y="18" width="137.24" height="137.24" rx="68.6202" fill="white"/>
<circle cx="99.6204" cy="86.619" r="61.1343" fill="#FF6800"/>
<path d="M124.896 68.9975C124.896 73.1684 121.515 76.5496 117.344 76.5496C113.173 76.5496 109.792 73.1684 109.792 68.9975C109.792 64.8265 113.173 61.4453 117.344 61.4453C121.515 61.4453 124.896 64.8265 124.896 68.9975Z" fill="black"/>
<path fill-rule="evenodd" clip-rule="evenodd" d="M99.7224 61.4453C103.244 61.4453 106.242 61.4453 108.815 61.5416C107.072 63.5339 106.016 66.1423 106.016 68.9975C106.016 75.2538 111.088 80.3257 117.344 80.3257C120.199 80.3257 122.808 79.2694 124.8 77.5264C124.896 80.0991 124.896 83.0979 124.896 86.6191C124.896 98.4862 124.896 104.42 121.21 108.106C117.523 111.793 111.589 111.793 99.7224 111.793C87.8553 111.793 81.9218 111.793 78.2352 108.106C74.5486 104.42 74.5486 98.4862 74.5486 86.6191C74.5486 74.7521 74.5486 68.8185 78.2352 65.1319C81.9218 61.4453 87.8553 61.4453 99.7224 61.4453ZM106.016 83.4724C104.973 83.4724 104.128 82.6271 104.128 81.5844C104.128 80.5416 104.973 79.6963 106.016 79.6963H112.309C113.352 79.6963 114.197 80.5416 114.197 81.5844V87.8778C114.197 88.9205 113.352 89.7658 112.309 89.7658C111.267 89.7658 110.421 88.9205 110.421 87.8778V86.1425L105.355 91.2089C103.634 92.9293 100.845 92.9293 99.1247 91.2089L95.1326 87.2168C94.8869 86.9711 94.4884 86.9711 94.2426 87.2168L88.4705 92.9889C87.7332 93.7262 86.5378 93.7262 85.8004 92.9889C85.0631 92.2516 85.0631 91.0562 85.8004 90.3188L91.5725 84.5467C93.2929 82.8263 96.0823 82.8263 97.8027 84.5467L101.795 88.5388C102.041 88.7845 102.439 88.7845 102.685 88.5388L107.751 83.4724H106.016Z" fill="black"/>
</g>
<defs>
<filter id="filter0_d_71_170" x="0" y="0" width="199.24" height="199.24" filterUnits="userSpaceOnUse" color-interpolation-filters="sRGB">
<feFlood flood-opacity="0" result="BackgroundImageFix"/>
<feColorMatrix in="SourceAlpha" type="matrix" values="0 0 0 0 0 0 0 0 0 0 0 0 0 0 0 0 0 0 127 0" result="hardAlpha"/>
<feOffset dy="13"/>
<feGaussianBlur stdDeviation="15.5"/>
<feColorMatrix type="matrix" values="0 0 0 0 0 0 0 0 0 0 0 0 0 0 0 0 0 0 0.65 0"/>
<feBlend mode="normal" in2="BackgroundImageFix" result="effect1_dropShadow_71_170"/>
<feBlend mode="normal" in="SourceGraphic" in2="effect1_dropShadow_71_170" result="shape"/>
</filter>
</defs>
</svg>
